<svg width="1000" height="960" viewBox="0 0 1000 960" xmlns="http://www.w3.org/2000/svg">
<defs>
  <radialGradient id="skBg" cx="50%" cy="50%" r="75%">
    <stop offset="0%" stop-color="#170430"/>
    <stop offset="100%" stop-color="#08000f"/>
  </radialGradient>
  <radialGradient id="nodeGlow" cx="50%" cy="50%" r="50%">
    <stop offset="0%" stop-color="#f3e8ff"/>
    <stop offset="40%" stop-color="#A855F7"/>
    <stop offset="100%" stop-color="#A855F7" stop-opacity="0"/>
  </radialGradient>
  <clipPath id="skFrame"><rect width="1000" height="960" rx="14"/></clipPath>
</defs>
<g clip-path="url(#skFrame)">
<rect width="1000" height="960" fill="url(#skBg)"/>
<g stroke="#7C3AED" stroke-opacity="0.07">
  <path d="M0,120 H1000 M0,280 H1000 M0,440 H1000 M0,600 H1000 M0,760 H1000 M0,920 H1000"/>
</g>

<!-- scanline -->
<rect x="0" y="0" width="1000" height="3" fill="#C084FC" opacity="0.06">
  <animate attributeName="y" values="0;960;0" dur="9s" repeatCount="indefinite"/>
</rect>

<text x="30" y="38" font-family="JetBrains Mono, monospace" font-size="15" fill="#A855F7" letter-spacing="2">ACTIVE TECHNOLOGY NETWORK</text>
<text x="30" y="58" font-family="JetBrains Mono, monospace" font-size="10.5" fill="#7c7c94">active modules detected &#8226; engineering &#8226; security &#8226; graphics &#8226; cloud</text>

<!-- central core node -->
<g transform="translate(500,530)">
  <circle r="52" fill="url(#nodeGlow)" opacity="0.6"/>
  <circle r="34" fill="none" stroke="#C084FC" stroke-width="1" opacity="0.6" stroke-dasharray="2 5">
    <animateTransform attributeName="transform" type="rotate" from="0" to="360" dur="16s" repeatCount="indefinite"/>
  </circle>
  <circle r="34" fill="none" stroke="#A855F7" stroke-width="0.8" opacity="0.35" stroke-dasharray="1 8">
    <animateTransform attributeName="transform" type="rotate" from="360" to="0" dur="22s" repeatCount="indefinite"/>
  </circle>
  <circle r="18" fill="#e9d5ff"/>
  <text y="4" text-anchor="middle" font-family="JetBrains Mono, monospace" font-size="10" fill="#170430" font-weight="700">CORE</text>
</g>

<!-- ============ CONNECTING LINES ============ -->
<g stroke="#A855F7" stroke-width="1.2" stroke-opacity="0.35">
  <!-- inner ring -->
  <line x1="500" y1="530" x2="500" y2="360"/>
  <line x1="500" y1="530" x2="600" y2="393"/>
  <line x1="500" y1="530" x2="662" y2="478"/>
  <line x1="500" y1="530" x2="662" y2="583"/>
  <line x1="500" y1="530" x2="600" y2="668"/>
  <line x1="500" y1="530" x2="500" y2="700"/>
  <line x1="500" y1="530" x2="400" y2="668"/>
  <line x1="500" y1="530" x2="338" y2="583"/>
  <line x1="500" y1="530" x2="338" y2="478"/>
  <line x1="500" y1="530" x2="400" y2="393"/>
</g>
<g stroke="#A855F7" stroke-width="0.9" stroke-opacity="0.2">
  <!-- outer ring -->
  <line x1="500" y1="530" x2="562" y2="237"/>
  <line x1="500" y1="530" x2="676" y2="287"/>
  <line x1="500" y1="530" x2="760" y2="380"/>
  <line x1="500" y1="530" x2="798" y2="499"/>
  <line x1="500" y1="530" x2="785" y2="623"/>
  <line x1="500" y1="530" x2="723" y2="731"/>
  <line x1="500" y1="530" x2="622" y2="804"/>
  <line x1="500" y1="530" x2="500" y2="830"/>
  <line x1="500" y1="530" x2="378" y2="804"/>
  <line x1="500" y1="530" x2="277" y2="731"/>
  <line x1="500" y1="530" x2="215" y2="623"/>
  <line x1="500" y1="530" x2="202" y2="499"/>
  <line x1="500" y1="530" x2="240" y2="380"/>
  <line x1="500" y1="530" x2="324" y2="287"/>
  <line x1="500" y1="530" x2="438" y2="237"/>
</g>

<!-- ============ PULSES ============ -->
<g fill="#e9d5ff">
  <circle r="2.4"><animateMotion dur="2.2s" repeatCount="indefinite" path="M500,530 L500,360"/></circle>
  <circle r="2.4"><animateMotion dur="2.4s" repeatCount="indefinite" path="M500,530 L600,393"/></circle>
  <circle r="2.4"><animateMotion dur="2.6s" repeatCount="indefinite" path="M500,530 L662,478"/></circle>
  <circle r="2.4"><animateMotion dur="2.3s" repeatCount="indefinite" path="M500,530 L662,583"/></circle>
  <circle r="2.4"><animateMotion dur="2.7s" repeatCount="indefinite" path="M500,530 L600,668"/></circle>
  <circle r="2.4"><animateMotion dur="2.1s" repeatCount="indefinite" path="M500,530 L500,700"/></circle>
  <circle r="2.4"><animateMotion dur="2.5s" repeatCount="indefinite" path="M500,530 L400,668"/></circle>
  <circle r="2.4"><animateMotion dur="2.8s" repeatCount="indefinite" path="M500,530 L338,583"/></circle>
  <circle r="2.4"><animateMotion dur="2.2s" repeatCount="indefinite" path="M500,530 L338,478"/></circle>
  <circle r="2.4"><animateMotion dur="2.6s" repeatCount="indefinite" path="M500,530 L400,393"/></circle>

  <circle r="1.8" opacity="0.8"><animateMotion dur="3.4s" repeatCount="indefinite" path="M500,530 L562,237"/></circle>
  <circle r="1.8" opacity="0.8"><animateMotion dur="3.1s" repeatCount="indefinite" path="M500,530 L676,287"/></circle>
  <circle r="1.8" opacity="0.8"><animateMotion dur="3.6s" repeatCount="indefinite" path="M500,530 L760,380"/></circle>
  <circle r="1.8" opacity="0.8"><animateMotion dur="3.2s" repeatCount="indefinite" path="M500,530 L798,499"/></circle>
  <circle r="1.8" opacity="0.8"><animateMotion dur="3.5s" repeatCount="indefinite" path="M500,530 L785,623"/></circle>
  <circle r="1.8" opacity="0.8"><animateMotion dur="3.0s" repeatCount="indefinite" path="M500,530 L723,731"/></circle>
  <circle r="1.8" opacity="0.8"><animateMotion dur="3.3s" repeatCount="indefinite" path="M500,530 L622,804"/></circle>
  <circle r="1.8" opacity="0.8"><animateMotion dur="3.7s" repeatCount="indefinite" path="M500,530 L500,830"/></circle>
  <circle r="1.8" opacity="0.8"><animateMotion dur="3.1s" repeatCount="indefinite" path="M500,530 L378,804"/></circle>
  <circle r="1.8" opacity="0.8"><animateMotion dur="3.4s" repeatCount="indefinite" path="M500,530 L277,731"/></circle>
  <circle r="1.8" opacity="0.8"><animateMotion dur="3.2s" repeatCount="indefinite" path="M500,530 L215,623"/></circle>
  <circle r="1.8" opacity="0.8"><animateMotion dur="3.6s" repeatCount="indefinite" path="M500,530 L202,499"/></circle>
  <circle r="1.8" opacity="0.8"><animateMotion dur="3.0s" repeatCount="indefinite" path="M500,530 L240,380"/></circle>
  <circle r="1.8" opacity="0.8"><animateMotion dur="3.5s" repeatCount="indefinite" path="M500,530 L324,287"/></circle>
  <circle r="1.8" opacity="0.8"><animateMotion dur="3.3s" repeatCount="indefinite" path="M500,530 L438,237"/></circle>
</g>

<!-- ============ INNER RING NODES (core stack) ============ -->
<g font-family="JetBrains Mono, monospace">
  <g transform="translate(500,360)"><circle r="26" fill="url(#nodeGlow)" opacity="0.5"/><circle r="15" fill="#1a0533" stroke="#A855F7" stroke-width="2"/><g transform="translate(-9,-9) scale(0.75)" fill="#e9d5ff">
<path d="M14.23 12.004a2.236 2.236 0 0 1-2.235 2.236 2.236 2.236 0 0 1-2.236-2.236 2.236 2.236 0 0 1 2.235-2.236 2.236 2.236 0 0 1 2.236 2.236zm2.648-10.69c-1.346 0-3.107.96-4.888 2.622-1.78-1.653-3.542-2.602-4.887-2.602-.41 0-.783.093-1.106.278-1.375.793-1.683 3.264-.973 6.365C1.98 8.917 0 10.42 0 12.004c0 1.59 1.99 3.097 5.043 4.03-.704 3.113-.39 5.588.988 6.38.32.187.69.275 1.102.275 1.345 0 3.107-.96 4.888-2.624 1.78 1.654 3.542 2.603 4.887 2.603.41 0 .783-.09 1.106-.275 1.374-.792 1.683-3.263.973-6.365C22.02 15.096 24 13.59 24 12.004c0-1.59-1.99-3.097-5.043-4.032.704-3.11.39-5.587-.988-6.38-.318-.184-.688-.277-1.092-.278zm-.005 1.09v.006c.225 0 .406.044.558.127.666.382.955 1.835.73 3.704-.054.46-.142.945-.25 1.44-.96-.236-2.006-.417-3.107-.534-.66-.905-1.345-1.727-2.035-2.447 1.592-1.48 3.087-2.292 4.105-2.295zm-9.77.02c1.012 0 2.514.808 4.11 2.28-.686.72-1.37 1.537-2.02 2.442-1.107.117-2.154.298-3.113.538-.112-.49-.195-.964-.254-1.42-.23-1.868.054-3.32.714-3.707.19-.09.4-.127.563-.132zm4.882 3.05c.455.468.91.992 1.36 1.564-.44-.02-.89-.034-1.345-.034-.46 0-.915.01-1.36.034.44-.572.895-1.096 1.345-1.565zM12 8.1c.74 0 1.477.034 2.202.093.406.582.802 1.203 1.183 1.86.372.64.71 1.29 1.018 1.946-.308.655-.646 1.31-1.013 1.95-.38.66-.773 1.288-1.18 1.87-.728.063-1.466.098-2.21.098-.74 0-1.477-.035-2.202-.093-.406-.582-.802-1.204-1.183-1.86-.372-.64-.71-1.29-1.018-1.946.303-.657.646-1.313 1.013-1.954.38-.66.773-1.286 1.18-1.868.728-.064 1.466-.098 2.21-.098zm-3.635.254c-.24.377-.48.763-.704 1.16-.225.39-.435.782-.635 1.174-.265-.656-.49-1.31-.676-1.947.64-.15 1.315-.283 2.015-.386zm7.26 0c.695.103 1.365.23 2.006.387-.18.632-.405 1.282-.66 1.933-.2-.39-.41-.783-.64-1.174-.225-.392-.465-.774-.705-1.146zm3.063.675c.484.15.944.317 1.375.498 1.732.74 2.852 1.708 2.852 2.476-.005.768-1.125 1.74-2.857 2.475-.42.18-.88.342-1.355.493-.28-.958-.646-1.956-1.1-2.98.45-1.017.81-2.01 1.085-2.964zm-13.395.004c.278.96.645 1.957 1.1 2.98-.45 1.017-.812 2.01-1.086 2.964-.484-.15-.944-.318-1.37-.5-1.732-.737-2.852-1.706-2.852-2.474 0-.768 1.12-1.742 2.852-2.476.42-.18.88-.342 1.356-.494zm11.678 4.28c.265.657.49 1.312.676 1.948-.64.157-1.316.29-2.016.39.24-.375.48-.762.705-1.158.225-.39.435-.788.636-1.18zm-9.945.02c.2.392.41.783.64 1.175.23.39.465.772.705 1.143-.695-.102-1.365-.23-2.006-.386.18-.63.406-1.282.66-1.933zM17.92 16.32c.112.493.2.968.254 1.423.23 1.868-.054 3.32-.714 3.708-.147.09-.338.128-.563.128-1.012 0-2.514-.807-4.11-2.28.686-.72 1.37-1.536 2.02-2.44 1.107-.118 2.154-.3 3.113-.54zm-11.83.01c.96.234 2.006.415 3.107.532.66.905 1.345 1.727 2.035 2.446-1.595 1.483-3.092 2.295-4.11 2.295-.22-.005-.406-.05-.553-.132-.666-.38-.955-1.834-.73-3.703.054-.46.142-.944.25-1.438zm4.56.64c.44.02.89.034 1.345.034.46 0 .915-.01 1.36-.034-.44.572-.895 1.095-1.345 1.565-.455-.47-.91-.993-1.36-1.565z"/>
</g><text text-anchor="middle" y="34" font-size="12" fill="#c9d1d9">React</text></g>
  <g transform="translate(600,393)"><circle r="26" fill="url(#nodeGlow)" opacity="0.5"/><circle r="15" fill="#1a0533" stroke="#A855F7" stroke-width="2"/><text text-anchor="middle" y="4" font-size="9" fill="#e9d5ff" font-weight="700">N</text><text text-anchor="middle" y="34" font-size="12" fill="#c9d1d9">Next.js</text></g>
  <g transform="translate(662,478)"><circle r="26" fill="url(#nodeGlow)" opacity="0.5"/><circle r="15" fill="#1a0533" stroke="#A855F7" stroke-width="2"/><text text-anchor="middle" y="4" font-size="9" fill="#e9d5ff" font-weight="700">La</text><text text-anchor="middle" y="34" font-size="12" fill="#c9d1d9">Laravel</text></g>
  <g transform="translate(662,583)"><circle r="26" fill="url(#nodeGlow)" opacity="0.5"/><circle r="15" fill="#1a0533" stroke="#A855F7" stroke-width="2"/><text text-anchor="middle" y="4" font-size="8.5" fill="#e9d5ff" font-weight="700">php</text><text text-anchor="middle" y="34" font-size="12" fill="#c9d1d9">PHP</text></g>
  <g transform="translate(600,668)"><circle r="26" fill="url(#nodeGlow)" opacity="0.5"/><circle r="15" fill="#1a0533" stroke="#A855F7" stroke-width="2"/><text text-anchor="middle" y="4" font-size="8.5" fill="#e9d5ff" font-weight="700">Mo</text><text text-anchor="middle" y="34" font-size="12" fill="#c9d1d9">MongoDB</text></g>
  <g transform="translate(500,700)"><circle r="26" fill="url(#nodeGlow)" opacity="0.5"/><circle r="15" fill="#1a0533" stroke="#A855F7" stroke-width="2"/><text text-anchor="middle" y="4" font-size="8.5" fill="#e9d5ff" font-weight="700">My</text><text text-anchor="middle" y="34" font-size="12" fill="#c9d1d9">MySQL</text></g>
  <g transform="translate(400,668)"><circle r="26" fill="url(#nodeGlow)" opacity="0.5"/><circle r="15" fill="#1a0533" stroke="#A855F7" stroke-width="2"/><text text-anchor="middle" y="4" font-size="9" fill="#e9d5ff" font-weight="700">TW</text><text text-anchor="middle" y="34" font-size="12" fill="#c9d1d9">Tailwind</text></g>
  <g transform="translate(338,583)"><circle r="26" fill="url(#nodeGlow)" opacity="0.5"/><circle r="15" fill="#1a0533" stroke="#A855F7" stroke-width="2"/><text text-anchor="middle" y="4" font-size="10" fill="#e9d5ff" font-weight="700">3</text><text text-anchor="middle" y="34" font-size="12" fill="#c9d1d9">CSS</text></g>
  <g transform="translate(338,478)"><circle r="26" fill="url(#nodeGlow)" opacity="0.5"/><circle r="15" fill="#1a0533" stroke="#A855F7" stroke-width="2"/><text text-anchor="middle" y="4" font-size="10" fill="#e9d5ff" font-weight="700">5</text><text text-anchor="middle" y="34" font-size="12" fill="#c9d1d9">HTML</text></g>
  <g transform="translate(400,393)"><circle r="26" fill="url(#nodeGlow)" opacity="0.5"/><circle r="15" fill="#1a0533" stroke="#A855F7" stroke-width="2"/><text text-anchor="middle" y="4" font-size="9" fill="#e9d5ff" font-weight="700">JS</text><text text-anchor="middle" y="34" font-size="12" fill="#c9d1d9">JavaScript</text></g>
</g>

<!-- ============ OUTER RING NODES (extended toolkit) ============ -->
<g font-family="JetBrains Mono, monospace">
  <g transform="translate(562,237)"><circle r="20" fill="url(#nodeGlow)" opacity="0.4"/><circle r="12" fill="#1a0533" stroke="#A855F7" stroke-width="1.5"/><text text-anchor="middle" y="3" font-size="8" fill="#e9d5ff" font-weight="700">BS</text><text text-anchor="middle" y="27" font-size="10.5" fill="#c9d1d9">Bootstrap</text></g>
  <g transform="translate(676,287)"><circle r="20" fill="url(#nodeGlow)" opacity="0.4"/><circle r="12" fill="#1a0533" stroke="#A855F7" stroke-width="1.5"/><text text-anchor="middle" y="3" font-size="8" fill="#e9d5ff" font-weight="700">jQ</text><text text-anchor="middle" y="27" font-size="10.5" fill="#c9d1d9">jQuery</text></g>
  <g transform="translate(760,380)"><circle r="20" fill="url(#nodeGlow)" opacity="0.4"/><circle r="12" fill="#1a0533" stroke="#A855F7" stroke-width="1.5"/><text text-anchor="middle" y="3" font-size="8" fill="#e9d5ff" font-weight="700">MU</text><text text-anchor="middle" y="27" font-size="10.5" fill="#c9d1d9">Material UI</text></g>
  <g transform="translate(798,499)"><circle r="20" fill="url(#nodeGlow)" opacity="0.4"/><circle r="12" fill="#1a0533" stroke="#A855F7" stroke-width="1.5"/><text text-anchor="middle" y="3" font-size="8.5" fill="#e9d5ff" font-weight="700">C#</text><text text-anchor="middle" y="27" font-size="10.5" fill="#c9d1d9">C#</text></g>
  <g transform="translate(785,623)"><circle r="20" fill="url(#nodeGlow)" opacity="0.4"/><circle r="12" fill="#1a0533" stroke="#A855F7" stroke-width="1.5"/><text text-anchor="middle" y="3" font-size="8" fill="#e9d5ff" font-weight="700">Dt</text><text text-anchor="middle" y="27" font-size="10.5" fill="#c9d1d9">Dart</text></g>
  <g transform="translate(723,731)"><circle r="20" fill="url(#nodeGlow)" opacity="0.4"/><circle r="12" fill="#1a0533" stroke="#A855F7" stroke-width="1.5"/><text text-anchor="middle" y="3" font-size="8" fill="#e9d5ff" font-weight="700">Fl</text><text text-anchor="middle" y="27" font-size="10.5" fill="#c9d1d9">Flutter</text></g>
  <g transform="translate(622,804)"><circle r="20" fill="url(#nodeGlow)" opacity="0.4"/><circle r="12" fill="#1a0533" stroke="#A855F7" stroke-width="1.5"/><text text-anchor="middle" y="3" font-size="7.5" fill="#e9d5ff" font-weight="700">ASP</text><text text-anchor="middle" y="27" font-size="10.5" fill="#c9d1d9">ASP.NET</text></g>
  <g transform="translate(500,830)"><circle r="20" fill="url(#nodeGlow)" opacity="0.4"/><circle r="12" fill="#1a0533" stroke="#A855F7" stroke-width="1.5"/><text text-anchor="middle" y="3" font-size="8" fill="#e9d5ff" font-weight="700">W3</text><text text-anchor="middle" y="27" font-size="10.5" fill="#c9d1d9">WinUI 3</text></g>
  <g transform="translate(378,804)"><circle r="20" fill="url(#nodeGlow)" opacity="0.4"/><circle r="12" fill="#1a0533" stroke="#A855F7" stroke-width="1.5"/><text text-anchor="middle" y="3" font-size="7.5" fill="#e9d5ff" font-weight="700">C++</text><text text-anchor="middle" y="27" font-size="10.5" fill="#c9d1d9">C++</text></g>
  <g transform="translate(277,731)"><circle r="20" fill="url(#nodeGlow)" opacity="0.4"/><circle r="12" fill="#1a0533" stroke="#A855F7" stroke-width="1.5"/><text text-anchor="middle" y="3" font-size="8" fill="#e9d5ff" font-weight="700">SQL</text><text text-anchor="middle" y="27" font-size="10.5" fill="#c9d1d9">SQL Server</text></g>
  <g transform="translate(215,623)"><circle r="20" fill="url(#nodeGlow)" opacity="0.4"/><circle r="12" fill="#1a0533" stroke="#A855F7" stroke-width="1.5"/><text text-anchor="middle" y="3" font-size="7.5" fill="#e9d5ff" font-weight="700">lite</text><text text-anchor="middle" y="27" font-size="10.5" fill="#c9d1d9">SQLite</text></g>
  <g transform="translate(202,499)"><circle r="20" fill="url(#nodeGlow)" opacity="0.4"/><circle r="12" fill="#1a0533" stroke="#A855F7" stroke-width="1.5"/><text text-anchor="middle" y="3" font-size="8" fill="#e9d5ff" font-weight="700">Pg</text><text text-anchor="middle" y="27" font-size="10.5" fill="#c9d1d9">PostgreSQL</text></g>
  <g transform="translate(240,380)"><circle r="20" fill="url(#nodeGlow)" opacity="0.4"/><circle r="12" fill="#1a0533" stroke="#A855F7" stroke-width="1.5"/><text text-anchor="middle" y="3" font-size="7.5" fill="#e9d5ff" font-weight="700">3js</text><text text-anchor="middle" y="27" font-size="10.5" fill="#c9d1d9">Three.js</text></g>
  <g transform="translate(324,287)"><circle r="20" fill="url(#nodeGlow)" opacity="0.4"/><circle r="12" fill="#1a0533" stroke="#A855F7" stroke-width="1.5"/><text text-anchor="middle" y="3" font-size="8" fill="#e9d5ff" font-weight="700">Fg</text><text text-anchor="middle" y="27" font-size="10.5" fill="#c9d1d9">Figma</text></g>
  <g transform="translate(438,237)"><circle r="20" fill="url(#nodeGlow)" opacity="0.4"/><circle r="12" fill="#1a0533" stroke="#A855F7" stroke-width="1.5"/><text text-anchor="middle" y="3" font-size="8" fill="#e9d5ff" font-weight="700">Bl</text><text text-anchor="middle" y="27" font-size="10.5" fill="#c9d1d9">Blender</text></g>
</g>
</g>
<rect x="0.5" y="0.5" width="999" height="959" rx="14" fill="none" stroke="#A855F7" stroke-width="1" opacity="0.55"/>
</svg>
