<svg width="1000" height="960" viewBox="0 0 1000 960"
  xmlns="http://www.w3.org/2000/svg">
  <defs>
    <radialGradient id="skBg" cx="50%" cy="50%" r="75%">
      <stop offset="0%" stop-color="#170430"/>
      <stop offset="100%" stop-color="#08000f"/>
    </radialGradient>
    <radialGradient id="nodeGlow" cx="50%" cy="50%" r="50%">
      <stop offset="0%" stop-color="#f3e8ff"/>
      <stop offset="40%" stop-color="#A855F7"/>
      <stop offset="100%" stop-color="#A855F7" stop-opacity="0"/>
    </radialGradient>
    <clipPath id="skFrame">
      <rect width="1000" height="960" rx="14"/>
    </clipPath>
  </defs>
  <g clip-path="url(#skFrame)">
    <rect width="1000" height="960" fill="url(#skBg)"/>
    <g stroke="#7C3AED" stroke-opacity="0.07">
      <path d="M0,120 H1000 M0,280 H1000 M0,440 H1000 M0,600 H1000 M0,760 H1000 M0,920 H1000"/>
    </g>

    <!-- scanline -->
    <rect x="0" y="0" width="1000" height="3" fill="#C084FC" opacity="0.06">
      <animate attributeName="y" values="0;960;0" dur="9s" repeatCount="indefinite"/>
    </rect>

    <text x="30" y="38" font-family="JetBrains Mono, monospace" font-size="15" fill="#A855F7" letter-spacing="2">ACTIVE TECHNOLOGY NETWORK</text>
    <text x="30" y="58" font-family="JetBrains Mono, monospace" font-size="10.5" fill="#7c7c94">active modules detected &#8226; engineering &#8226; security &#8226; graphics &#8226; cloud</text>

    <!-- central core node -->
    <g transform="translate(500,530)">
      <circle r="52" fill="url(#nodeGlow)" opacity="0.6"/>
      <circle r="34" fill="none" stroke="#C084FC" stroke-width="1" opacity="0.6" stroke-dasharray="2 5">
        <animateTransform attributeName="transform" type="rotate" from="0" to="360" dur="16s" repeatCount="indefinite"/>
      </circle>
      <circle r="34" fill="none" stroke="#A855F7" stroke-width="0.8" opacity="0.35" stroke-dasharray="1 8">
        <animateTransform attributeName="transform" type="rotate" from="360" to="0" dur="22s" repeatCount="indefinite"/>
      </circle>
      <circle r="18" fill="#e9d5ff"/>
      <text y="4" text-anchor="middle" font-family="JetBrains Mono, monospace" font-size="10" fill="#170430" font-weight="700">CORE</text>
    </g>

    <!-- ============ CONNECTING LINES ============ -->
    <g stroke="#A855F7" stroke-width="1.2" stroke-opacity="0.35">
      <!-- inner ring -->
      <line x1="500" y1="530" x2="500" y2="360"/>
      <line x1="500" y1="530" x2="600" y2="393"/>
      <line x1="500" y1="530" x2="662" y2="478"/>
      <line x1="500" y1="530" x2="662" y2="583"/>
      <line x1="500" y1="530" x2="600" y2="668"/>
      <line x1="500" y1="530" x2="500" y2="700"/>
      <line x1="500" y1="530" x2="400" y2="668"/>
      <line x1="500" y1="530" x2="338" y2="583"/>
      <line x1="500" y1="530" x2="338" y2="478"/>
      <line x1="500" y1="530" x2="400" y2="393"/>
    </g>
    <g stroke="#A855F7" stroke-width="0.9" stroke-opacity="0.2">
      <!-- outer ring -->
      <line x1="500" y1="530" x2="562" y2="237"/>
      <line x1="500" y1="530" x2="676" y2="287"/>
      <line x1="500" y1="530" x2="760" y2="380"/>
      <line x1="500" y1="530" x2="798" y2="499"/>
      <line x1="500" y1="530" x2="785" y2="623"/>
      <line x1="500" y1="530" x2="723" y2="731"/>
      <line x1="500" y1="530" x2="622" y2="804"/>
      <line x1="500" y1="530" x2="500" y2="830"/>
      <line x1="500" y1="530" x2="378" y2="804"/>
      <line x1="500" y1="530" x2="277" y2="731"/>
      <line x1="500" y1="530" x2="215" y2="623"/>
      <line x1="500" y1="530" x2="202" y2="499"/>
      <line x1="500" y1="530" x2="240" y2="380"/>
      <line x1="500" y1="530" x2="324" y2="287"/>
      <line x1="500" y1="530" x2="438" y2="237"/>
    </g>

    <!-- ============ PULSES ============ -->
    <g fill="#e9d5ff">
      <circle r="2.4">
        <animateMotion dur="2.2s" repeatCount="indefinite" path="M500,530 L500,360"/>
      </circle>
      <circle r="2.4">
        <animateMotion dur="2.4s" repeatCount="indefinite" path="M500,530 L600,393"/>
      </circle>
      <circle r="2.4">
        <animateMotion dur="2.6s" repeatCount="indefinite" path="M500,530 L662,478"/>
      </circle>
      <circle r="2.4">
        <animateMotion dur="2.3s" repeatCount="indefinite" path="M500,530 L662,583"/>
      </circle>
      <circle r="2.4">
        <animateMotion dur="2.7s" repeatCount="indefinite" path="M500,530 L600,668"/>
      </circle>
      <circle r="2.4">
        <animateMotion dur="2.1s" repeatCount="indefinite" path="M500,530 L500,700"/>
      </circle>
      <circle r="2.4">
        <animateMotion dur="2.5s" repeatCount="indefinite" path="M500,530 L400,668"/>
      </circle>
      <circle r="2.4">
        <animateMotion dur="2.8s" repeatCount="indefinite" path="M500,530 L338,583"/>
      </circle>
      <circle r="2.4">
        <animateMotion dur="2.2s" repeatCount="indefinite" path="M500,530 L338,478"/>
      </circle>
      <circle r="2.4">
        <animateMotion dur="2.6s" repeatCount="indefinite" path="M500,530 L400,393"/>
      </circle>

      <circle r="1.8" opacity="0.8">
        <animateMotion dur="3.4s" repeatCount="indefinite" path="M500,530 L562,237"/>
      </circle>
      <circle r="1.8" opacity="0.8">
        <animateMotion dur="3.1s" repeatCount="indefinite" path="M500,530 L676,287"/>
      </circle>
      <circle r="1.8" opacity="0.8">
        <animateMotion dur="3.6s" repeatCount="indefinite" path="M500,530 L760,380"/>
      </circle>
      <circle r="1.8" opacity="0.8">
        <animateMotion dur="3.2s" repeatCount="indefinite" path="M500,530 L798,499"/>
      </circle>
      <circle r="1.8" opacity="0.8">
        <animateMotion dur="3.5s" repeatCount="indefinite" path="M500,530 L785,623"/>
      </circle>
      <circle r="1.8" opacity="0.8">
        <animateMotion dur="3.0s" repeatCount="indefinite" path="M500,530 L723,731"/>
      </circle>
      <circle r="1.8" opacity="0.8">
        <animateMotion dur="3.3s" repeatCount="indefinite" path="M500,530 L622,804"/>
      </circle>
      <circle r="1.8" opacity="0.8">
        <animateMotion dur="3.7s" repeatCount="indefinite" path="M500,530 L500,830"/>
      </circle>
      <circle r="1.8" opacity="0.8">
        <animateMotion dur="3.1s" repeatCount="indefinite" path="M500,530 L378,804"/>
      </circle>
      <circle r="1.8" opacity="0.8">
        <animateMotion dur="3.4s" repeatCount="indefinite" path="M500,530 L277,731"/>
      </circle>
      <circle r="1.8" opacity="0.8">
        <animateMotion dur="3.2s" repeatCount="indefinite" path="M500,530 L215,623"/>
      </circle>
      <circle r="1.8" opacity="0.8">
        <animateMotion dur="3.6s" repeatCount="indefinite" path="M500,530 L202,499"/>
      </circle>
      <circle r="1.8" opacity="0.8">
        <animateMotion dur="3.0s" repeatCount="indefinite" path="M500,530 L240,380"/>
      </circle>
      <circle r="1.8" opacity="0.8">
        <animateMotion dur="3.5s" repeatCount="indefinite" path="M500,530 L324,287"/>
      </circle>
      <circle r="1.8" opacity="0.8">
        <animateMotion dur="3.3s" repeatCount="indefinite" path="M500,530 L438,237"/>
      </circle>
    </g>

    <!-- ============ INNER RING NODES (core stack) ============ -->
    <g font-family="JetBrains Mono, monospace">
      <g transform="translate(500,360)">
        <circle r="26" fill="url(#nodeGlow)" opacity="0.5"/>
        <circle r="15" fill="#1a0533" stroke="#A855F7" stroke-width="2"/>
        <g transform="translate(-9,-9) scale(0.75)" fill="#e9d5ff">
          <path d="M14.23 12.004a2.236 2.236 0 0 1-2.235 2.236 2.236 2.236 0 0 1-2.236-2.236 2.236 2.236 0 0 1 2.235-2.236 2.236 2.236 0 0 1 2.236 2.236zm2.648-10.69c-1.346 0-3.107.96-4.888 2.622-1.78-1.653-3.542-2.602-4.887-2.602-.41 0-.783.093-1.106.278-1.375.793-1.683 3.264-.973 6.365C1.98 8.917 0 10.42 0 12.004c0 1.59 1.99 3.097 5.043 4.03-.704 3.113-.39 5.588.988 6.38.32.187.69.275 1.102.275 1.345 0 3.107-.96 4.888-2.624 1.78 1.654 3.542 2.603 4.887 2.603.41 0 .783-.09 1.106-.275 1.374-.792 1.683-3.263.973-6.365C22.02 15.096 24 13.59 24 12.004c0-1.59-1.99-3.097-5.043-4.032.704-3.11.39-5.587-.988-6.38-.318-.184-.688-.277-1.092-.278zm-.005 1.09v.006c.225 0 .406.044.558.127.666.382.955 1.835.73 3.704-.054.46-.142.945-.25 1.44-.96-.236-2.006-.417-3.107-.534-.66-.905-1.345-1.727-2.035-2.447 1.592-1.48 3.087-2.292 4.105-2.295zm-9.77.02c1.012 0 2.514.808 4.11 2.28-.686.72-1.37 1.537-2.02 2.442-1.107.117-2.154.298-3.113.538-.112-.49-.195-.964-.254-1.42-.23-1.868.054-3.32.714-3.707.19-.09.4-.127.563-.132zm4.882 3.05c.455.468.91.992 1.36 1.564-.44-.02-.89-.034-1.345-.034-.46 0-.915.01-1.36.034.44-.572.895-1.096 1.345-1.565zM12 8.1c.74 0 1.477.034 2.202.093.406.582.802 1.203 1.183 1.86.372.64.71 1.29 1.018 1.946-.308.655-.646 1.31-1.013 1.95-.38.66-.773 1.288-1.18 1.87-.728.063-1.466.098-2.21.098-.74 0-1.477-.035-2.202-.093-.406-.582-.802-1.204-1.183-1.86-.372-.64-.71-1.29-1.018-1.946.303-.657.646-1.313 1.013-1.954.38-.66.773-1.286 1.18-1.868.728-.064 1.466-.098 2.21-.098zm-3.635.254c-.24.377-.48.763-.704 1.16-.225.39-.435.782-.635 1.174-.265-.656-.49-1.31-.676-1.947.64-.15 1.315-.283 2.015-.386zm7.26 0c.695.103 1.365.23 2.006.387-.18.632-.405 1.282-.66 1.933-.2-.39-.41-.783-.64-1.174-.225-.392-.465-.774-.705-1.146zm3.063.675c.484.15.944.317 1.375.498 1.732.74 2.852 1.708 2.852 2.476-.005.768-1.125 1.74-2.857 2.475-.42.18-.88.342-1.355.493-.28-.958-.646-1.956-1.1-2.98.45-1.017.81-2.01 1.085-2.964zm-13.395.004c.278.96.645 1.957 1.1 2.98-.45 1.017-.812 2.01-1.086 2.964-.484-.15-.944-.318-1.37-.5-1.732-.737-2.852-1.706-2.852-2.474 0-.768 1.12-1.742 2.852-2.476.42-.18.88-.342 1.356-.494zm11.678 4.28c.265.657.49 1.312.676 1.948-.64.157-1.316.29-2.016.39.24-.375.48-.762.705-1.158.225-.39.435-.788.636-1.18zm-9.945.02c.2.392.41.783.64 1.175.23.39.465.772.705 1.143-.695-.102-1.365-.23-2.006-.386.18-.63.406-1.282.66-1.933zM17.92 16.32c.112.493.2.968.254 1.423.23 1.868-.054 3.32-.714 3.708-.147.09-.338.128-.563.128-1.012 0-2.514-.807-4.11-2.28.686-.72 1.37-1.536 2.02-2.44 1.107-.118 2.154-.3 3.113-.54zm-11.83.01c.96.234 2.006.415 3.107.532.66.905 1.345 1.727 2.035 2.446-1.595 1.483-3.092 2.295-4.11 2.295-.22-.005-.406-.05-.553-.132-.666-.38-.955-1.834-.73-3.703.054-.46.142-.944.25-1.438zm4.56.64c.44.02.89.034 1.345.034.46 0 .915-.01 1.36-.034-.44.572-.895 1.095-1.345 1.565-.455-.47-.91-.993-1.36-1.565z"/>
        </g>
        <text text-anchor="middle" y="34" font-size="12" fill="#c9d1d9">React</text>
      </g>
      <g transform="translate(600,393)">
        <circle r="26" fill="url(#nodeGlow)" opacity="0.5"/>
        <circle r="15" fill="#1a0533" stroke="#A855F7" stroke-width="2"/>
        <g transform="translate(-9,-9) scale(0.75)" fill="#e9d5ff">
            <path d="M18.665 21.978C16.758 23.255 14.465 24 12 24 5.377 24 0 18.623 0 12S5.377 0 12 0s12 5.377 12 12c0 3.583-1.574 6.801-4.067 9.001L9.219 7.2H7.2v9.596h1.615V9.251l9.85 12.727Zm-3.332-8.533 1.6 2.061V7.2h-1.6v6.245Z"/>
        </g>
        <text text-anchor="middle" y="34" font-size="12" fill="#c9d1d9">Next.js</text>
      </g>
      <g transform="translate(662,478)">
        <circle r="26" fill="url(#nodeGlow)" opacity="0.5"/>
        <circle r="15" fill="#1a0533" stroke="#A855F7" stroke-width="2"/>
        <g transform="translate(-9,-9) scale(0.75)" fill="#e9d5ff">
          <path d="M23.642 5.43a.364.364 0 01.014.1v5.149c0 .135-.073.26-.189.326l-4.323 2.49v4.934a.378.378 0 01-.188.326L9.93 23.949a.316.316 0 01-.066.027c-.008.002-.016.008-.024.01a.348.348 0 01-.192 0c-.011-.002-.02-.008-.03-.012-.02-.008-.042-.014-.062-.025L.533 18.755a.376.376 0 01-.189-.326V2.974c0-.033.005-.066.014-.098.003-.012.01-.02.014-.032a.369.369 0 01.023-.058c.004-.013.015-.022.023-.033l.033-.045c.012-.01.025-.018.037-.027.014-.012.027-.024.041-.034H.53L5.043.05a.375.375 0 01.375 0L9.93 2.647h.002c.015.01.027.021.04.033l.038.027c.013.014.02.03.033.045.008.011.02.021.025.033.01.02.017.038.024.058.003.011.01.021.013.032.01.031.014.064.014.098v9.652l3.76-2.164V5.527c0-.033.004-.066.013-.098.003-.01.01-.02.013-.032a.487.487 0 01.024-.059c.007-.012.018-.02.025-.033.012-.015.021-.03.033-.043.012-.012.025-.02.037-.028.014-.01.026-.023.041-.032h.001l4.513-2.598a.375.375 0 01.375 0l4.513 2.598c.016.01.027.021.042.031.012.01.025.018.036.028.013.014.022.03.034.044.008.012.019.021.024.033.011.02.018.04.024.06.006.01.012.021.015.032zm-.74 5.032V6.179l-1.578.908-2.182 1.256v4.283zm-4.51 7.75v-4.287l-2.147 1.225-6.126 3.498v4.325zM1.093 3.624v14.588l8.273 4.761v-4.325l-4.322-2.445-.002-.003H5.04c-.014-.01-.025-.021-.04-.031-.011-.01-.024-.018-.035-.027l-.001-.002c-.013-.012-.021-.025-.031-.04-.01-.011-.021-.022-.028-.036h-.002c-.008-.014-.013-.031-.02-.047-.006-.016-.014-.027-.018-.043a.49.49 0 01-.008-.057c-.002-.014-.006-.027-.006-.041V5.789l-2.18-1.257zM5.23.81L1.47 2.974l3.76 2.164 3.758-2.164zm1.956 13.505l2.182-1.256V3.624l-1.58.91-2.182 1.255v9.435zm11.581-10.95l-3.76 2.163 3.76 2.163 3.759-2.164zm-.376 4.978L16.21 7.087 14.63 6.18v4.283l2.182 1.256 1.58.908zm-8.65 9.654l5.514-3.148 2.756-1.572-3.757-2.163-4.323 2.489-3.941 2.27z"/>
        </g>
        <text text-anchor="middle" y="34" font-size="12" fill="#c9d1d9">Laravel</text>
      </g>
      <g transform="translate(662,583)">
        <circle r="26" fill="url(#nodeGlow)" opacity="0.5"/>
        <circle r="15" fill="#1a0533" stroke="#A855F7" stroke-width="2"/>
        <g transform="translate(-9,-9) scale(0.75)" fill="#e9d5ff">
            <path d="M7.01 10.207h-.944l-.515 2.648h.838c.556 0 .97-.105 1.242-.314.272-.21.455-.559.55-1.049.092-.47.05-.802-.124-.995-.175-.193-.523-.29-1.047-.29zM12 5.688C5.373 5.688 0 8.514 0 12s5.373 6.313 12 6.313S24 15.486 24 12c0-3.486-5.373-6.312-12-6.312zm-3.26 7.451c-.261.25-.575.438-.917.551-.336.108-.765.164-1.285.164H5.357l-.327 1.681H3.652l1.23-6.326h2.65c.797 0 1.378.209 1.744.628.366.418.476 1.002.33 1.752a2.836 2.836 0 0 1-.305.847c-.143.255-.33.49-.561.703zm4.024.715l.543-2.799c.063-.318.039-.536-.068-.651-.107-.116-.336-.174-.687-.174H11.46l-.704 3.625H9.388l1.23-6.327h1.367l-.327 1.682h1.218c.767 0 1.295.134 1.586.401s.378.7.263 1.299l-.572 2.944h-1.389zm7.597-2.265a2.782 2.782 0 0 1-.305.847c-.143.255-.33.49-.561.703a2.44 2.44 0 0 1-.917.551c-.336.108-.765.164-1.286.164h-1.18l-.327 1.682h-1.378l1.23-6.326h2.649c.797 0 1.378.209 1.744.628.366.417.477 1.001.331 1.751zM17.766 10.207h-.943l-.516 2.648h.838c.557 0 .971-.105 1.242-.314.272-.21.455-.559.551-1.049.092-.47.049-.802-.125-.995s-.524-.29-1.047-.29z"/>
        </g>
        <text text-anchor="middle" y="34" font-size="12" fill="#c9d1d9">PHP</text>
      </g>
      <g transform="translate(600,668)">
        <circle r="26" fill="url(#nodeGlow)" opacity="0.5"/>
        <circle r="15" fill="#1a0533" stroke="#A855F7" stroke-width="2"/>
        <g transform="translate(-9,-9) scale(0.75)" fill="#e9d5ff">
            <path d="M17.193 9.555c-1.264-5.58-4.252-7.414-4.573-8.115-.28-.394-.53-.954-.735-1.44-.036.495-.055.685-.523 1.184-.723.566-4.438 3.682-4.74 10.02-.282 5.912 4.27 9.435 4.888 9.884l.07.05A73.49 73.49 0 0111.91 24h.481c.114-1.032.284-2.056.51-3.07.417-.296.604-.463.85-.693a11.342 11.342 0 003.639-8.464c.01-.814-.103-1.662-.197-2.218zm-5.336 8.195s0-8.291.275-8.29c.213 0 .49 10.695.49 10.695-.381-.045-.765-1.76-.765-2.405z"/>
        </g>
        <text text-anchor="middle" y="34" font-size="12" fill="#c9d1d9">MongoDB</text>
      </g>
      <g transform="translate(500,700)">
        <circle r="26" fill="url(#nodeGlow)" opacity="0.5"/>
        <circle r="15" fill="#1a0533" stroke="#A855F7" stroke-width="2"/>
        <g transform="translate(-9,-9) scale(0.75)" fill="#e9d5ff">
            <path d="M16.405 5.501c-.115 0-.193.014-.274.033v.013h.014c.054.104.146.18.214.273.054.107.1.214.154.32l.014-.015c.094-.066.14-.172.14-.333-.04-.047-.046-.094-.08-.14-.04-.067-.126-.1-.18-.153zM5.77 18.695h-.927a50.854 50.854 0 00-.27-4.41h-.008l-1.41 4.41H2.45l-1.4-4.41h-.01a72.892 72.892 0 00-.195 4.41H0c.055-1.966.192-3.81.41-5.53h1.15l1.335 4.064h.008l1.347-4.064h1.095c.242 2.015.384 3.86.428 5.53zm4.017-4.08c-.378 2.045-.876 3.533-1.492 4.46-.482.716-1.01 1.073-1.583 1.073-.153 0-.34-.046-.566-.138v-.494c.11.017.24.026.386.026.268 0 .483-.075.647-.222.197-.18.295-.382.295-.605 0-.155-.077-.47-.23-.944L6.23 14.615h.91l.727 2.36c.164.536.233.91.205 1.123.4-1.064.678-2.227.835-3.483zm12.325 4.08h-2.63v-5.53h.885v4.85h1.745zm-3.32.135l-1.016-.5c.09-.076.177-.158.255-.25.433-.506.648-1.258.648-2.253 0-1.83-.718-2.746-2.155-2.746-.704 0-1.254.232-1.65.697-.43.508-.646 1.256-.646 2.245 0 .972.19 1.686.574 2.14.35.41.877.615 1.583.615.264 0 .506-.033.725-.098l1.325.772.36-.622zM15.5 17.588c-.225-.36-.337-.94-.337-1.736 0-1.393.424-2.09 1.27-2.09.443 0 .77.167.977.5.224.362.336.936.336 1.723 0 1.404-.424 2.108-1.27 2.108-.445 0-.77-.167-.978-.5zm-1.658-.425c0 .47-.172.856-.516 1.156-.344.3-.803.45-1.384.45-.543 0-1.064-.172-1.573-.515l.237-.476c.438.22.833.328 1.19.328.332 0 .593-.073.783-.22a.754.754 0 00.3-.615c0-.33-.23-.61-.648-.845-.388-.213-1.163-.657-1.163-.657-.422-.307-.632-.636-.632-1.177 0-.45.157-.81.47-1.085.315-.278.72-.415 1.22-.415.512 0 .98.136 1.4.41l-.213.476a2.726 2.726 0 00-1.064-.23c-.283 0-.502.068-.654.206a.685.685 0 00-.248.524c0 .328.234.61.666.85.393.215 1.187.67 1.187.67.433.305.648.63.648 1.168zm9.382-5.852c-.535-.014-.95.04-1.297.188-.1.04-.26.04-.274.167.055.053.063.14.11.214.08.134.218.313.346.407.14.11.28.216.427.31.26.16.555.255.81.416.145.094.293.213.44.313.073.05.12.14.214.172v-.02c-.046-.06-.06-.147-.105-.214-.067-.067-.134-.127-.2-.193a3.223 3.223 0 00-.695-.675c-.214-.146-.682-.35-.77-.595l-.013-.014c.146-.013.32-.066.46-.106.227-.06.435-.047.67-.106.106-.027.213-.06.32-.094v-.06c-.12-.12-.21-.283-.334-.395a8.867 8.867 0 00-1.104-.823c-.21-.134-.476-.22-.697-.334-.08-.04-.214-.06-.26-.127-.12-.146-.19-.34-.275-.514a17.69 17.69 0 01-.547-1.163c-.12-.262-.193-.523-.34-.763-.69-1.137-1.437-1.826-2.586-2.5-.247-.14-.543-.2-.856-.274-.167-.008-.334-.02-.5-.027-.11-.047-.216-.174-.31-.235-.38-.24-1.364-.76-1.644-.072-.18.434.267.862.422 1.082.115.153.26.328.34.5.047.116.06.235.107.356.106.294.207.622.347.897.073.14.153.287.247.413.054.073.146.107.167.227-.094.136-.1.334-.154.5-.24.757-.146 1.693.194 2.25.107.166.362.534.703.393.3-.12.234-.5.32-.835.02-.08.007-.133.048-.187v.015c.094.188.188.367.274.555.206.328.566.668.867.895.16.12.287.328.487.402v-.02h-.015c-.043-.058-.1-.086-.154-.133a3.445 3.445 0 01-.35-.4 8.76 8.76 0 01-.747-1.218c-.11-.21-.202-.436-.29-.643-.04-.08-.04-.2-.107-.24-.1.146-.247.273-.32.453-.127.288-.14.642-.188 1.01-.027.007-.014 0-.027.014-.214-.052-.287-.274-.367-.46-.2-.475-.233-1.238-.06-1.785.047-.14.247-.582.167-.716-.042-.127-.174-.2-.247-.303a2.478 2.478 0 01-.24-.427c-.16-.374-.24-.788-.414-1.162-.08-.173-.22-.354-.334-.513-.127-.18-.267-.307-.368-.52-.033-.073-.08-.194-.027-.274.014-.054.042-.075.094-.09.088-.072.335.022.422.062.247.1.455.194.662.334.094.066.195.193.315.226h.14c.214.047.455.014.655.073.355.114.675.28.962.46a5.953 5.953 0 012.085 2.286c.08.154.115.295.188.455.14.33.313.663.455.982.14.315.275.636.476.897.1.14.502.213.682.286.133.06.34.115.46.188.23.14.454.3.67.454.11.076.443.243.463.378z"/>
        </g>
        <text text-anchor="middle" y="34" font-size="12" fill="#c9d1d9">MySQL</text>
      </g>
      <g transform="translate(400,668)">
        <circle r="26" fill="url(#nodeGlow)" opacity="0.5"/>
        <circle r="15" fill="#1a0533" stroke="#A855F7" stroke-width="2"/>
        <g transform="translate(-9,-9) scale(0.75)" fill="#e9d5ff">
            <path d="M12.001,4.8c-3.2,0-5.2,1.6-6,4.8c1.2-1.6,2.6-2.2,4.2-1.8c0.913,0.228,1.565,0.89,2.288,1.624 C13.666,10.618,15.027,12,18.001,12c3.2,0,5.2-1.6,6-4.8c-1.2,1.6-2.6,2.2-4.2,1.8c-0.913-0.228-1.565-0.89-2.288-1.624 C16.337,6.182,14.976,4.8,12.001,4.8z M6.001,12c-3.2,0-5.2,1.6-6,4.8c1.2-1.6,2.6-2.2,4.2-1.8c0.913,0.228,1.565,0.89,2.288,1.624 c1.177,1.194,2.538,2.576,5.512,2.576c3.2,0,5.2-1.6,6-4.8c-1.2,1.6-2.6,2.2-4.2,1.8c-0.913-0.228-1.565-0.89-2.288-1.624 C10.337,13.382,8.976,12,6.001,12z"/>
        </g>
        <text text-anchor="middle" y="34" font-size="12" fill="#c9d1d9">Tailwind</text>
      </g>
      <g transform="translate(338,583)">
        <circle r="26" fill="url(#nodeGlow)" opacity="0.5"/>
        <circle r="15" fill="#1a0533" stroke="#A855F7" stroke-width="2"/>
        <g transform="translate(-9,-9) scale(0.75)" fill="#e9d5ff">
            <path d="M0 0v20.16A3.84 3.84 0 0 0 3.84 24h16.32A3.84 3.84 0 0 0 24 20.16V3.84A3.84 3.84 0 0 0 20.16 0Zm14.256 13.08c1.56 0 2.28 1.08 2.304 2.64h-1.608c.024-.288-.048-.6-.144-.84-.096-.192-.288-.264-.552-.264-.456 0-.696.264-.696.84-.024.576.288.888.768 1.08.72.288 1.608.744 1.92 1.296q.432.648.432 1.656c0 1.608-.912 2.592-2.496 2.592-1.656 0-2.4-1.032-2.424-2.688h1.68c0 .792.264 1.176.792 1.176.264 0 .456-.072.552-.24.192-.312.24-1.176-.048-1.512-.312-.408-.912-.6-1.32-.816q-.828-.396-1.224-.936c-.24-.36-.36-.888-.36-1.536 0-1.44.936-2.472 2.424-2.448m5.4 0c1.584 0 2.304 1.08 2.328 2.64h-1.608c0-.288-.048-.6-.168-.84-.096-.192-.264-.264-.528-.264-.48 0-.72.264-.72.84s.288.888.792 1.08c.696.288 1.608.744 1.92 1.296.264.432.408.984.408 1.656.024 1.608-.888 2.592-2.472 2.592-1.68 0-2.424-1.056-2.448-2.688h1.68c0 .744.264 1.176.792 1.176.264 0 .456-.072.552-.24.216-.312.264-1.176-.048-1.512-.288-.408-.888-.6-1.32-.816-.552-.264-.96-.576-1.2-.936s-.36-.888-.36-1.536c-.024-1.44.912-2.472 2.4-2.448m-11.031.018c.711-.006 1.419.198 1.839.63.432.432.672 1.128.648 1.992H9.336c.024-.456-.096-.792-.432-.96-.312-.144-.768-.048-.888.24-.12.264-.192.576-.168.864v3.504c0 .744.264 1.128.768 1.128a.65.65 0 0 0 .552-.264c.168-.24.192-.552.168-.84h1.776c.096 1.632-.984 2.712-2.568 2.688-1.536 0-2.496-.864-2.472-2.472v-4.032c0-.816.24-1.44.696-1.848.432-.408 1.146-.624 1.857-.63"/>
        </g>
        <text text-anchor="middle" y="34" font-size="12" fill="#c9d1d9">CSS</text>
      </g>
      <g transform="translate(338,478)">
        <circle r="26" fill="url(#nodeGlow)" opacity="0.5"/>
        <circle r="15" fill="#1a0533" stroke="#A855F7" stroke-width="2"/>
        <g transform="translate(-9,-9) scale(0.75)" fill="#e9d5ff">
            <path d="M1.5 0h21l-1.91 21.563L11.977 24l-8.564-2.438L1.5 0zm7.031 9.75l-.232-2.718 10.059.003.23-2.622L5.412 4.41l.698 8.01h9.126l-.326 3.426-2.91.804-2.955-.81-.188-2.11H6.248l.33 4.171L12 19.351l5.379-1.443.744-8.157H8.531z"/>
        </g>
        <text text-anchor="middle" y="34" font-size="12" fill="#c9d1d9">HTML</text>
      </g>
      <g transform="translate(400,393)">
        <circle r="26" fill="url(#nodeGlow)" opacity="0.5"/>
        <circle r="15" fill="#1a0533" stroke="#A855F7" stroke-width="2"/>
        <g transform="translate(-9,-9) scale(0.75)" fill="#e9d5ff">
            <path d="M0 0h24v24H0V0zm22.034 18.276c-.175-1.095-.888-2.015-3.003-2.873-.736-.345-1.554-.585-1.797-1.14-.091-.33-.105-.51-.046-.705.15-.646.915-.84 1.515-.66.39.12.75.42.976.9 1.034-.676 1.034-.676 1.755-1.125-.27-.42-.404-.601-.586-.78-.63-.705-1.469-1.065-2.834-1.034l-.705.089c-.676.165-1.32.525-1.71 1.005-1.14 1.291-.811 3.541.569 4.471 1.365 1.02 3.361 1.244 3.616 2.205.24 1.17-.87 1.545-1.966 1.41-.811-.18-1.26-.586-1.755-1.336l-1.83 1.051c.21.48.45.689.81 1.109 1.74 1.756 6.09 1.666 6.871-1.004.029-.09.24-.705.074-1.65l.046.067zm-8.983-7.245h-2.248c0 1.938-.009 3.864-.009 5.805 0 1.232.063 2.363-.138 2.711-.33.689-1.18.601-1.566.48-.396-.196-.597-.466-.83-.855-.063-.105-.11-.196-.127-.196l-1.825 1.125c.305.63.75 1.172 1.324 1.517.855.51 2.004.675 3.207.405.783-.226 1.458-.691 1.811-1.411.51-.93.402-2.07.397-3.346.012-2.054 0-4.109 0-6.179l.004-.056z"/>
        </g>
        <text text-anchor="middle" y="34" font-size="12" fill="#c9d1d9">JavaScript</text>
      </g>
    </g>

    <!-- ============ OUTER RING NODES (extended toolkit) ============ -->
    <g font-family="JetBrains Mono, monospace">
      <g transform="translate(562,237)">
        <circle r="20" fill="url(#nodeGlow)" opacity="0.4"/>
        <circle r="12" fill="#1a0533" stroke="#A855F7" stroke-width="1.5"/>
       <g transform="translate(-7,-7) scale(0.60)" fill="#e9d5ff">
            <path d="M11.77 11.24H9.956V8.202h2.152c1.17 0 1.834.522 1.834 1.466 0 1.008-.773 1.572-2.174 1.572zm.324 1.206H9.957v3.348h2.231c1.459 0 2.232-.585 2.232-1.685s-.795-1.663-2.326-1.663zM24 11.39v1.218c-1.128.108-1.817.944-2.226 2.268-.407 1.319-.463 2.937-.42 4.186.045 1.3-.968 2.5-2.337 2.5H4.985c-1.37 0-2.383-1.2-2.337-2.5.043-1.249-.013-2.867-.42-4.186-.41-1.324-1.1-2.16-2.228-2.268V11.39c1.128-.108 1.819-.944 2.227-2.268.408-1.319.464-2.937.42-4.186-.045-1.3.968-2.5 2.338-2.5h14.032c1.37 0 2.382 1.2 2.337 2.5-.043 1.249.013 2.867.42 4.186.409 1.324 1.098 2.16 2.226 2.268zm-7.927 2.817c0-1.354-.953-2.333-2.368-2.488v-.057c1.04-.169 1.856-1.135 1.856-2.213 0-1.537-1.213-2.538-3.062-2.538h-4.16v10.172h4.181c2.218 0 3.553-1.086 3.553-2.876z"/>
        </g>
        <text text-anchor="middle" y="27" font-size="10.5" fill="#c9d1d9">Bootstrap</text>
      </g>
      <g transform="translate(676,287)">
        <circle r="20" fill="url(#nodeGlow)" opacity="0.4"/>
        <circle r="12" fill="#1a0533" stroke="#A855F7" stroke-width="1.5"/>
        <g transform="translate(-7,-7) scale(0.60)" fill="#e9d5ff">
            <path d="M1.525 5.87c-2.126 3.054-1.862 7.026-.237 10.269.037.079.078.154.118.229.023.052.049.1.077.15.013.027.031.056.047.082.026.052.054.102.081.152l.157.266c.03.049.057.097.09.146.056.094.12.187.178.281.026.04.05.078.079.117a6.368 6.368 0 00.31.445c.078.107.156.211.24.315.027.038.058.076.086.115l.22.269c.028.03.055.067.084.099.098.118.202.233.306.35l.005.006a3.134 3.134 0 00.425.44c.08.083.16.165.245.245l.101.097c.111.105.223.209.34.309.002 0 .003.002.005.003l.057.05c.102.089.205.178.31.26l.125.105c.085.068.174.133.26.2l.137.105c.093.07.192.139.287.207.035.025.07.05.106.073l.03.023.28.185.12.08c.148.094.294.184.44.272.041.02.084.044.123.068.108.062.22.125.329.183.06.034.122.063.184.094.075.042.153.083.234.125a.324.324 0 01.056.023c.033.015.064.031.096.047.12.06.245.118.375.175.024.01.05.02.076.034.144.063.289.123.438.182.034.01.07.027.105.04.135.051.274.103.411.152l.05.018c.154.052.305.102.46.15.036.01.073.023.111.033.16.048.314.105.474.137 10.273 1.872 13.258-6.177 13.258-6.177-2.508 3.266-6.958 4.127-11.174 3.169-.156-.036-.312-.086-.47-.132a13.539 13.539 0 01-.567-.182l-.062-.024c-.136-.046-.267-.097-.4-.148a1.615 1.615 0 00-.11-.04c-.148-.06-.29-.121-.433-.184-.031-.01-.057-.024-.088-.036a23.44 23.44 0 01-.362-.17 1.485 1.485 0 01-.106-.052c-.094-.044-.188-.095-.28-.143a3.947 3.947 0 01-.187-.096c-.114-.06-.227-.125-.34-.187-.034-.024-.073-.044-.112-.066a15.922 15.922 0 01-.439-.27 2.107 2.107 0 01-.118-.078 6.01 6.01 0 01-.312-.207c-.035-.023-.067-.048-.103-.073a9.553 9.553 0 01-.295-.212c-.042-.034-.087-.066-.132-.1-.088-.07-.177-.135-.265-.208l-.118-.095a10.593 10.593 0 01-.335-.28.258.258 0 00-.037-.031l-.347-.316-.1-.094c-.082-.084-.166-.164-.25-.246l-.098-.1a9.081 9.081 0 01-.309-.323l-.015-.016c-.106-.116-.21-.235-.313-.355-.027-.03-.053-.064-.08-.097l-.227-.277a21.275 21.275 0 01-.34-.449C2.152 11.79 1.306 7.384 3.177 3.771m4.943-.473c-1.54 2.211-1.454 5.169-.254 7.508a9.111 9.111 0 00.678 1.133c.23.33.484.721.793.988.107.122.223.24.344.36l.09.09c.114.11.232.217.35.325l.016.013a9.867 9.867 0 00.414.342c.034.023.063.05.096.073.14.108.282.212.428.316l.015.009c.062.045.128.086.198.13.028.018.06.042.09.06.106.068.21.132.318.197.017.007.032.016.048.023.09.055.188.108.282.157.033.02.065.035.1.054.066.033.132.068.197.102l.032.014c.135.067.273.129.408.19.034.014.063.025.092.039.111.048.224.094.336.137.05.017.097.037.144.052.102.038.21.073.31.108l.14.045c.147.045.295.104.449.13C22.164 17.206 24 11.098 24 11.098c-1.653 2.38-4.852 3.513-8.261 2.628a8.04 8.04 0 01-.449-.13c-.048-.014-.09-.029-.136-.043-.104-.036-.211-.07-.312-.109l-.144-.054c-.113-.045-.227-.087-.336-.135-.034-.015-.065-.025-.091-.04-.14-.063-.281-.125-.418-.192l-.206-.107-.119-.06a5.673 5.673 0 01-.265-.15.62.62 0 01-.062-.035c-.106-.066-.217-.13-.318-.198-.034-.019-.065-.042-.097-.062l-.208-.136c-.144-.1-.285-.208-.428-.313-.032-.029-.063-.053-.094-.079-1.499-1.178-2.681-2.79-3.242-4.613-.59-1.897-.46-4.023.56-5.75m4.292-.147c-.909 1.334-.996 2.99-.37 4.46.665 1.563 2.024 2.79 3.608 3.37.065.025.128.046.196.07l.088.027c.092.03.185.063.28.084 4.381.845 5.567-2.25 5.886-2.704-1.043 1.498-2.792 1.857-4.938 1.335a4.85 4.85 0 01-.516-.16 6.352 6.352 0 01-.618-.254 6.53 6.53 0 01-1.082-.66c-1.922-1.457-3.113-4.236-1.859-6.5"/>
        </g>
        <text text-anchor="middle" y="27" font-size="10.5" fill="#c9d1d9">jQuery</text>
      </g>
      <g transform="translate(760,380)">
        <circle r="20" fill="url(#nodeGlow)" opacity="0.4"/>
        <circle r="12" fill="#1a0533" stroke="#A855F7" stroke-width="1.5"/>
        <g transform="translate(-7,-7) scale(0.60)" fill="#e9d5ff">
            <path d="M20.229 15.793a.666.666 0 0 0 .244-.243.666.666 0 0 0 .09-.333l.012-3.858a.666.666 0 0 1 .09-.333.666.666 0 0 1 .245-.243L23 9.58a.667.667 0 0 1 .333-.088.667.667 0 0 1 .333.09.667.667 0 0 1 .244.243.666.666 0 0 1 .089.333v7.014a.667.667 0 0 1-.335.578l-7.893 4.534a.666.666 0 0 1-.662 0l-6.194-3.542a.667.667 0 0 1-.246-.244.667.667 0 0 1-.09-.335v-3.537c0-.004.004-.006.008-.004s.008 0 .008-.005v-.004c0-.003.002-.005.004-.007l5.102-2.93c.004-.003.002-.01-.003-.01a.005.005 0 0 1-.004-.002.005.005 0 0 1-.001-.004l.01-3.467a.667.667 0 0 0-.333-.58.667.667 0 0 0-.667 0L8.912 9.799a.667.667 0 0 1-.665 0l-3.804-2.19a.667.667 0 0 0-.999.577v6.267a.667.667 0 0 1-.332.577.666.666 0 0 1-.332.09.667.667 0 0 1-.333-.088L.336 13.825a.667.667 0 0 1-.246-.244.667.667 0 0 1-.09-.336L.019 2.292a.667.667 0 0 1 .998-.577l7.23 4.153a.667.667 0 0 0 .665 0l7.228-4.153a.666.666 0 0 1 .333-.088.666.666 0 0 1 .333.09.667.667 0 0 1 .244.244.667.667 0 0 1 .088.333V13.25c0 .117-.03.232-.089.334a.667.667 0 0 1-.245.244l-3.785 2.18a.667.667 0 0 0-.245.245.666.666 0 0 0-.089.334.667.667 0 0 0 .09.334.666.666 0 0 0 .247.244l2.088 1.189a.67.67 0 0 0 .33.087.667.667 0 0 0 .332-.089l4.457-2.56Zm.438-9.828a.666.666 0 0 0 .09.335.666.666 0 0 0 .248.244.667.667 0 0 0 .67-.008l2.001-1.2a.666.666 0 0 0 .237-.243.667.667 0 0 0 .087-.329V2.32a.667.667 0 0 0-.091-.335.667.667 0 0 0-.584-.33.667.667 0 0 0-.334.094l-2 1.2a.666.666 0 0 0-.238.243.668.668 0 0 0-.086.329v2.445Z"/>
        </g>
        <text text-anchor="middle" y="27" font-size="10.5" fill="#c9d1d9">Material UI</text>
      </g>
      <g transform="translate(798,499)">
        <circle r="20" fill="url(#nodeGlow)" opacity="0.4"/>
        <circle r="12" fill="#1a0533" stroke="#A855F7" stroke-width="1.5"/>
        <g transform="translate(-7,-7) scale(0.60)" fill="#e9d5ff">
            <path d="M14.2209.0875v5.9613l-3.7433.5012v3.5233l3.7433-.5012v3.5735l3.492-.4672V9.1047L24 8.2634l-.4631-3.4613-5.824.7794V.0875zM6.287 1.145v5.9618L0 7.9483l.4634 3.4613 5.8514-.7834 3.4644-.4637V1.145zm3.5198 9.7185l-3.492.4675v3.578l-6.183.8276.4633 3.4613 5.8239-.7796v5.4942h3.492v-5.962l3.6114-.4834V13.944l-3.7156.4973zm13.73 1.7405l-5.824.779-3.492.4673v9.0179h3.492v-5.9618L24 16.0652Z"/>
        </g>
        <text text-anchor="middle" y="27" font-size="10.5" fill="#c9d1d9">C#</text>
      </g>
      <g transform="translate(785,623)">
        <circle r="20" fill="url(#nodeGlow)" opacity="0.4"/>
        <circle r="12" fill="#1a0533" stroke="#A855F7" stroke-width="1.5"/>
        <g transform="translate(-7,-7) scale(0.60)" fill="#e9d5ff">
            <path d="M4.105 4.105S9.158 1.58 11.684.316a3.079 3.079 0 0 1 1.481-.315c.766.047 1.677.788 1.677.788L24 9.948v9.789h-4.263V24H9.789l-9-9C.303 14.5 0 13.795 0 13.105c0-.319.18-.818.316-1.105l3.789-7.895zm.679.679v11.787c.002.543.021 1.024.498 1.508L10.204 23h8.533v-4.263L4.784 4.784zm12.055-.678c-.899-.896-1.809-1.78-2.74-2.643-.302-.267-.567-.468-1.07-.462-.37.014-.87.195-.87.195L6.341 4.105l10.498.001z"/>
        </g>
        <text text-anchor="middle" y="27" font-size="10.5" fill="#c9d1d9">Dart</text>
      </g>
      <g transform="translate(723,731)">
        <circle r="20" fill="url(#nodeGlow)" opacity="0.4"/>
        <circle r="12" fill="#1a0533" stroke="#A855F7" stroke-width="1.5"/>
        <g transform="translate(-7,-7) scale(0.60)" fill="#e9d5ff">
            <path d="M14.314 0L2.3 12 6 15.7 21.684.013h-7.357zm.014 11.072L7.857 17.53l6.47 6.47H21.7l-6.46-6.468 6.46-6.46h-7.37z"/>
        </g>
        <text text-anchor="middle" y="27" font-size="10.5" fill="#c9d1d9">Flutter</text>
      </g>
      <g transform="translate(622,804)">
        <circle r="20" fill="url(#nodeGlow)" opacity="0.4"/>
        <circle r="12" fill="#1a0533" stroke="#A855F7" stroke-width="1.5"/>
        <g transform="translate(-7,-7) scale(0.60)" fill="#e9d5ff">
            <path d="M24 8.77h-2.468v7.565h-1.425V8.77h-2.462V7.53H24zm-6.852 7.565h-4.821V7.53h4.63v1.24h-3.205v2.494h2.953v1.234h-2.953v2.604h3.396zm-6.708 0H8.882L4.78 9.863a2.896 2.896 0 0 1-.258-.51h-.036c.032.189.048.592.048 1.21v5.772H3.157V7.53h1.659l3.965 6.32c.167.261.275.442.323.54h.024c-.04-.233-.06-.629-.06-1.185V7.529h1.372zm-8.703-.693a.868.829 0 0 1-.869.829.868.829 0 0 1-.868-.83.868.829 0 0 1 .868-.828.868.829 0 0 1 .869.829Z"/>
        </g>
        <text text-anchor="middle" y="27" font-size="10.5" fill="#c9d1d9">ASP.NET</text>
      </g>
      <g transform="translate(500,830)">
        <circle r="20" fill="url(#nodeGlow)" opacity="0.4"/>
        <circle r="12" fill="#1a0533" stroke="#A855F7" stroke-width="1.5"/>
        <text text-anchor="middle" y="3" font-size="8" fill="#e9d5ff" font-weight="700">W3</text>
        <text text-anchor="middle" y="27" font-size="10.5" fill="#c9d1d9">WinUI 3</text>
      </g>
      <g transform="translate(378,804)">
        <circle r="20" fill="url(#nodeGlow)" opacity="0.4"/>
        <circle r="12" fill="#1a0533" stroke="#A855F7" stroke-width="1.5"/>
        <g transform="translate(-7,-7) scale(0.60)" fill="#e9d5ff">
            <path d="M22.394 6c-.167-.29-.398-.543-.652-.69L12.926.22c-.509-.294-1.34-.294-1.848 0L2.26 5.31c-.508.293-.923 1.013-.923 1.6v10.18c0 .294.104.62.271.91.167.29.398.543.652.69l8.816 5.09c.508.293 1.34.293 1.848 0l8.816-5.09c.254-.147.485-.4.652-.69.167-.29.27-.616.27-.91V6.91c.003-.294-.1-.62-.268-.91zM12 19.11c-3.92 0-7.109-3.19-7.109-7.11 0-3.92 3.19-7.11 7.11-7.11a7.133 7.133 0 016.156 3.553l-3.076 1.78a3.567 3.567 0 00-3.08-1.78A3.56 3.56 0 008.444 12 3.56 3.56 0 0012 15.555a3.57 3.57 0 003.08-1.778l3.078 1.78A7.135 7.135 0 0112 19.11zm7.11-6.715h-.79v.79h-.79v-.79h-.79v-.79h.79v-.79h.79v.79h.79zm2.962 0h-.79v.79h-.79v-.79h-.79v-.79h.79v-.79h.79v.79h.79z"/>
        </g>
        <text text-anchor="middle" y="27" font-size="10.5" fill="#c9d1d9">C++</text>
      </g>
      <g transform="translate(277,731)">
        <circle r="20" fill="url(#nodeGlow)" opacity="0.4"/>
        <circle r="12" fill="#1a0533" stroke="#A855F7" stroke-width="1.5"/>
        <text text-anchor="middle" y="3" font-size="8" fill="#e9d5ff" font-weight="700">SQL</text>
        <text text-anchor="middle" y="27" font-size="10.5" fill="#c9d1d9">SQL Server</text>
      </g>
      <g transform="translate(215,623)">
        <circle r="20" fill="url(#nodeGlow)" opacity="0.4"/>
        <circle r="12" fill="#1a0533" stroke="#A855F7" stroke-width="1.5"/>
        <g transform="translate(-7,-7) scale(0.60)" fill="#e9d5ff">
            <path d="M21.678.521c-1.032-.92-2.28-.55-3.513.544a8.71 8.71 0 0 0-.547.535c-2.109 2.237-4.066 6.38-4.674 9.544.237.48.422 1.093.544 1.561a13.044 13.044 0 0 1 .164.703s-.019-.071-.096-.296l-.05-.146a1.689 1.689 0 0 0-.033-.08c-.138-.32-.518-.995-.686-1.289-.143.423-.27.818-.376 1.176.484.884.778 2.4.778 2.4s-.025-.099-.147-.442c-.107-.303-.644-1.244-.772-1.464-.217.804-.304 1.346-.226 1.478.152.256.296.698.422 1.186.286 1.1.485 2.44.485 2.44l.017.224a22.41 22.41 0 0 0 .056 2.748c.095 1.146.273 2.13.5 2.657l.155-.084c-.334-1.038-.47-2.399-.41-3.967.09-2.398.642-5.29 1.661-8.304 1.723-4.55 4.113-8.201 6.3-9.945-1.993 1.8-4.692 7.63-5.5 9.788-.904 2.416-1.545 4.684-1.931 6.857.666-2.037 2.821-2.912 2.821-2.912s1.057-1.304 2.292-3.166c-.74.169-1.955.458-2.362.629-.6.251-.762.337-.762.337s1.945-1.184 3.613-1.72C21.695 7.9 24.195 2.767 21.678.521m-18.573.543A1.842 1.842 0 0 0 1.27 2.9v16.608a1.84 1.84 0 0 0 1.835 1.834h9.418a22.953 22.953 0 0 1-.052-2.707c-.006-.062-.011-.141-.016-.2a27.01 27.01 0 0 0-.473-2.378c-.121-.47-.275-.898-.369-1.057-.116-.197-.098-.31-.097-.432 0-.12.015-.245.037-.386a9.98 9.98 0 0 1 .234-1.045l.217-.028c-.017-.035-.014-.065-.031-.097l-.041-.381a32.8 32.8 0 0 1 .382-1.194l.2-.019c-.008-.016-.01-.038-.018-.053l-.043-.316c.63-3.28 2.587-7.443 4.8-9.791.066-.069.133-.128.198-.194Z"/>
        </g>
        <text text-anchor="middle" y="27" font-size="10.5" fill="#c9d1d9">SQLite</text>
      </g>
      <g transform="translate(202,499)">
        <circle r="20" fill="url(#nodeGlow)" opacity="0.4"/>
        <circle r="12" fill="#1a0533" stroke="#A855F7" stroke-width="1.5"/>
        <g transform="translate(-7,-7) scale(0.60)" fill="#e9d5ff">
            <path d="M23.5594 14.7228a.5269.5269 0 0 0-.0563-.1191c-.139-.2632-.4768-.3418-1.0074-.2321-1.6533.3411-2.2935.1312-2.5256-.0191 1.342-2.0482 2.445-4.522 3.0411-6.8297.2714-1.0507.7982-3.5237.1222-4.7316a1.5641 1.5641 0 0 0-.1509-.235C21.6931.9086 19.8007.0248 17.5099.0005c-1.4947-.0158-2.7705.3461-3.1161.4794a9.449 9.449 0 0 0-.5159-.0816 8.044 8.044 0 0 0-1.3114-.1278c-1.1822-.0184-2.2038.2642-3.0498.8406-.8573-.3211-4.7888-1.645-7.2219.0788C.9359 2.1526.3086 3.8733.4302 6.3043c.0409.818.5069 3.334 1.2423 5.7436.4598 1.5065.9387 2.7019 1.4334 3.582.553.9942 1.1259 1.5933 1.7143 1.7895.4474.1491 1.1327.1441 1.8581-.7279.8012-.9635 1.5903-1.8258 1.9446-2.2069.4351.2355.9064.3625 1.39.3772a.0569.0569 0 0 0 .0004.0041 11.0312 11.0312 0 0 0-.2472.3054c-.3389.4302-.4094.5197-1.5002.7443-.3102.064-1.1344.2339-1.1464.8115-.0025.1224.0329.2309.0919.3268.2269.4231.9216.6097 1.015.6331 1.3345.3335 2.5044.092 3.3714-.6787-.017 2.231.0775 4.4174.3454 5.0874.2212.5529.7618 1.9045 2.4692 1.9043.2505 0 .5263-.0291.8296-.0941 1.7819-.3821 2.5557-1.1696 2.855-2.9059.1503-.8707.4016-2.8753.5388-4.1012.0169-.0703.0357-.1207.057-.1362.0007-.0005.0697-.0471.4272.0307a.3673.3673 0 0 0 .0443.0068l.2539.0223.0149.001c.8468.0384 1.9114-.1426 2.5312-.4308.6438-.2988 1.8057-1.0323 1.5951-1.6698zM2.371 11.8765c-.7435-2.4358-1.1779-4.8851-1.2123-5.5719-.1086-2.1714.4171-3.6829 1.5623-4.4927 1.8367-1.2986 4.8398-.5408 6.108-.13-.0032.0032-.0066.0061-.0098.0094-2.0238 2.044-1.9758 5.536-1.9708 5.7495-.0002.0823.0066.1989.0162.3593.0348.5873.0996 1.6804-.0735 2.9184-.1609 1.1504.1937 2.2764.9728 3.0892.0806.0841.1648.1631.2518.2374-.3468.3714-1.1004 1.1926-1.9025 2.1576-.5677.6825-.9597.5517-1.0886.5087-.3919-.1307-.813-.5871-1.2381-1.3223-.4796-.839-.9635-2.0317-1.4155-3.5126zm6.0072 5.0871c-.1711-.0428-.3271-.1132-.4322-.1772.0889-.0394.2374-.0902.4833-.1409 1.2833-.2641 1.4815-.4506 1.9143-1.0002.0992-.126.2116-.2687.3673-.4426a.3549.3549 0 0 0 .0737-.1298c.1708-.1513.2724-.1099.4369-.0417.156.0646.3078.26.3695.4752.0291.1016.0619.2945-.0452.4444-.9043 1.2658-2.2216 1.2494-3.1676 1.0128zm2.094-3.988-.0525.141c-.133.3566-.2567.6881-.3334 1.003-.6674-.0021-1.3168-.2872-1.8105-.8024-.6279-.6551-.9131-1.5664-.7825-2.5004.1828-1.3079.1153-2.4468.079-3.0586-.005-.0857-.0095-.1607-.0122-.2199.2957-.2621 1.6659-.9962 2.6429-.7724.4459.1022.7176.4057.8305.928.5846 2.7038.0774 3.8307-.3302 4.7363-.084.1866-.1633.3629-.2311.5454zm7.3637 4.5725c-.0169.1768-.0358.376-.0618.5959l-.146.4383a.3547.3547 0 0 0-.0182.1077c-.0059.4747-.054.6489-.115.8693-.0634.2292-.1353.4891-.1794 1.0575-.11 1.4143-.8782 2.2267-2.4172 2.5565-1.5155.3251-1.7843-.4968-2.0212-1.2217a6.5824 6.5824 0 0 0-.0769-.2266c-.2154-.5858-.1911-1.4119-.1574-2.5551.0165-.5612-.0249-1.9013-.3302-2.6462.0044-.2932.0106-.5909.019-.8918a.3529.3529 0 0 0-.0153-.1126 1.4927 1.4927 0 0 0-.0439-.208c-.1226-.4283-.4213-.7866-.7797-.9351-.1424-.059-.4038-.1672-.7178-.0869.067-.276.1831-.5875.309-.9249l.0529-.142c.0595-.16.134-.3257.213-.5012.4265-.9476 1.0106-2.2453.3766-5.1772-.2374-1.0981-1.0304-1.6343-2.2324-1.5098-.7207.0746-1.3799.3654-1.7088.5321a5.6716 5.6716 0 0 0-.1958.1041c.0918-1.1064.4386-3.1741 1.7357-4.4823a4.0306 4.0306 0 0 1 .3033-.276.3532.3532 0 0 0 .1447-.0644c.7524-.5706 1.6945-.8506 2.802-.8325.4091.0067.8017.0339 1.1742.081 1.939.3544 3.2439 1.4468 4.0359 2.3827.8143.9623 1.2552 1.9315 1.4312 2.4543-1.3232-.1346-2.2234.1268-2.6797.779-.9926 1.4189.543 4.1729 1.2811 5.4964.1353.2426.2522.4522.2889.5413.2403.5825.5515.9713.7787 1.2552.0696.087.1372.1714.1885.245-.4008.1155-1.1208.3825-1.0552 1.717-.0123.1563-.0423.4469-.0834.8148-.0461.2077-.0702.4603-.0994.7662zm.8905-1.6211c-.0405-.8316.2691-.9185.5967-1.0105a2.8566 2.8566 0 0 0 .135-.0406 1.202 1.202 0 0 0 .1342.103c.5703.3765 1.5823.4213 3.0068.1344-.2016.1769-.5189.3994-.9533.6011-.4098.1903-1.0957.333-1.7473.3636-.7197.0336-1.0859-.0807-1.1721-.151zm.5695-9.2712c-.0059.3508-.0542.6692-.1054 1.0017-.055.3576-.112.7274-.1264 1.1762-.0142.4368.0404.8909.0932 1.3301.1066.887.216 1.8003-.2075 2.7014a3.5272 3.5272 0 0 1-.1876-.3856c-.0527-.1276-.1669-.3326-.3251-.6162-.6156-1.1041-2.0574-3.6896-1.3193-4.7446.3795-.5427 1.3408-.5661 2.1781-.463zm.2284 7.0137a12.3762 12.3762 0 0 0-.0853-.1074l-.0355-.0444c.7262-1.1995.5842-2.3862.4578-3.4385-.0519-.4318-.1009-.8396-.0885-1.2226.0129-.4061.0666-.7543.1185-1.0911.0639-.415.1288-.8443.1109-1.3505.0134-.0531.0188-.1158.0118-.1902-.0457-.4855-.5999-1.938-1.7294-3.253-.6076-.7073-1.4896-1.4972-2.6889-2.0395.5251-.1066 1.2328-.2035 2.0244-.1859 2.0515.0456 3.6746.8135 4.8242 2.2824a.908.908 0 0 1 .0667.1002c.7231 1.3556-.2762 6.2751-2.9867 10.5405zm-8.8166-6.1162c-.025.1794-.3089.4225-.6211.4225a.5821.5821 0 0 1-.0809-.0056c-.1873-.026-.3765-.144-.5059-.3156-.0458-.0605-.1203-.178-.1055-.2844.0055-.0401.0261-.0985.0925-.1488.1182-.0894.3518-.1226.6096-.0867.3163.0441.6426.1938.6113.4186zm7.9305-.4114c.0111.0792-.049.201-.1531.3102-.0683.0717-.212.1961-.4079.2232a.5456.5456 0 0 1-.075.0052c-.2935 0-.5414-.2344-.5607-.3717-.024-.1765.2641-.3106.5611-.352.297-.0414.6111.0088.6356.1851z"/>
        </g>
        <text text-anchor="middle" y="27" font-size="10.5" fill="#c9d1d9">PostgreSQL</text>
      </g>
      <g transform="translate(240,380)">
        <circle r="20" fill="url(#nodeGlow)" opacity="0.4"/>
        <circle r="12" fill="#1a0533" stroke="#A855F7" stroke-width="1.5"/>
        <g transform="translate(-7,-7) scale(0.60)" fill="#e9d5ff">
            <path d="M.38 0a.268.268 0 0 0-.256.332l2.894 11.716a.268.268 0 0 0 .01.04l2.89 11.708a.268.268 0 0 0 .447.128L23.802 7.15a.268.268 0 0 0-.112-.45l-5.784-1.667a.268.268 0 0 0-.123-.035L6.38 1.715a.268.268 0 0 0-.144-.04L.456.01A.268.268 0 0 0 .38 0zm.374.654L5.71 2.08 1.99 5.664zM6.61 2.34l4.864 1.4-3.65 3.515zm-.522.12l1.217 4.926-4.877-1.4zm6.28 1.538l4.878 1.404-3.662 3.53zm-.52.13l1.208 4.9-4.853-1.392zm6.3 1.534l4.947 1.424-3.715 3.574zm-.524.12l1.215 4.926-4.876-1.398zm-15.432.696l4.964 1.424-3.726 3.586zM8.047 8.15l4.877 1.4-3.66 3.527zm-.518.137l1.236 5.017-4.963-1.432zm6.274 1.535l4.965 1.425-3.73 3.586zm-.52.127l1.235 5.012-4.958-1.43zm-9.63 2.438l4.873 1.406-3.656 3.523zm5.854 1.687l4.863 1.403-3.648 3.51zm-.54.04l1.214 4.927-4.875-1.4zm-3.896 4.02l5.037 1.442-3.782 3.638z"/>
        </g>
        <text text-anchor="middle" y="27" font-size="10.5" fill="#c9d1d9">Three.js</text>
      </g>
      <g transform="translate(324,287)">
        <circle r="20" fill="url(#nodeGlow)" opacity="0.4"/>
        <circle r="12" fill="#1a0533" stroke="#A855F7" stroke-width="1.5"/>
        <g transform="translate(-7,-7) scale(0.60)" fill="#e9d5ff">
            <path d="M15.852 8.981h-4.588V0h4.588c2.476 0 4.49 2.014 4.49 4.49s-2.014 4.491-4.49 4.491zM12.735 7.51h3.117c1.665 0 3.019-1.355 3.019-3.019s-1.355-3.019-3.019-3.019h-3.117V7.51zm0 1.471H8.148c-2.476 0-4.49-2.014-4.49-4.49S5.672 0 8.148 0h4.588v8.981zm-4.587-7.51c-1.665 0-3.019 1.355-3.019 3.019s1.354 3.02 3.019 3.02h3.117V1.471H8.148zm4.587 15.019H8.148c-2.476 0-4.49-2.014-4.49-4.49s2.014-4.49 4.49-4.49h4.588v8.98zM8.148 8.981c-1.665 0-3.019 1.355-3.019 3.019s1.355 3.019 3.019 3.019h3.117V8.981H8.148zM8.172 24c-2.489 0-4.515-2.014-4.515-4.49s2.014-4.49 4.49-4.49h4.588v4.441c0 2.503-2.047 4.539-4.563 4.539zm-.024-7.51a3.023 3.023 0 0 0-3.019 3.019c0 1.665 1.365 3.019 3.044 3.019 1.705 0 3.093-1.376 3.093-3.068v-2.97H8.148zm7.704 0h-.098c-2.476 0-4.49-2.014-4.49-4.49s2.014-4.49 4.49-4.49h.098c2.476 0 4.49 2.014 4.49 4.49s-2.014 4.49-4.49 4.49zm-.097-7.509c-1.665 0-3.019 1.355-3.019 3.019s1.355 3.019 3.019 3.019h.098c1.665 0 3.019-1.355 3.019-3.019s-1.355-3.019-3.019-3.019h-.098z"/>
        </g>
        <text text-anchor="middle" y="27" font-size="10.5" fill="#c9d1d9">Figma</text>
      </g>
      <g transform="translate(438,237)">
        <circle r="20" fill="url(#nodeGlow)" opacity="0.4"/>
        <circle r="12" fill="#1a0533" stroke="#A855F7" stroke-width="1.5"/>
        <g transform="translate(-7,-7) scale(0.60)" fill="#e9d5ff">
            <path d="M12.51 13.214c.046-.8.438-1.506 1.03-2.006a3.424 3.424 0 0 1 2.212-.79c.85 0 1.631.3 2.211.79.592.5.983 1.206 1.028 2.005.045.823-.285 1.586-.865 2.153a3.389 3.389 0 0 1-2.374.938 3.393 3.393 0 0 1-2.376-.938c-.58-.567-.91-1.33-.865-2.152M7.35 14.831c.006.314.106.922.256 1.398a7.372 7.372 0 0 0 1.593 2.757 8.227 8.227 0 0 0 2.787 2.001 8.947 8.947 0 0 0 3.66.76 8.964 8.964 0 0 0 3.657-.772 8.285 8.285 0 0 0 2.785-2.01 7.428 7.428 0 0 0 1.592-2.762 6.964 6.964 0 0 0 .25-3.074 7.123 7.123 0 0 0-1.016-2.779 7.764 7.764 0 0 0-1.852-2.043h.002L13.566 2.55l-.02-.015c-.492-.378-1.319-.376-1.86.002-.547.382-.609 1.015-.123 1.415l-.001.001 3.126 2.543-9.53.01h-.013c-.788.001-1.545.518-1.695 1.172-.154.665.38 1.217 1.2 1.22V8.9l4.83-.01-8.62 6.617-.034.025c-.813.622-1.075 1.658-.563 2.313.52.667 1.625.668 2.447.004L7.414 14s-.069.52-.063.831zm12.09 1.741c-.97.988-2.326 1.548-3.795 1.55-1.47.004-2.827-.552-3.797-1.538a4.51 4.51 0 0 1-1.036-1.622 4.282 4.282 0 0 1 .282-3.519 4.702 4.702 0 0 1 1.153-1.371c.942-.768 2.141-1.183 3.396-1.185 1.256-.002 2.455.41 3.398 1.175.48.391.87.854 1.152 1.367a4.28 4.28 0 0 1 .522 1.706 4.236 4.236 0 0 1-.239 1.811 4.54 4.54 0 0 1-1.035 1.626"/>
        </g>
        <text text-anchor="middle" y="27" font-size="10.5" fill="#c9d1d9">Blender</text>
      </g>
    </g>
  </g>
  <rect x="0.5" y="0.5" width="999" height="959" rx="14" fill="none" stroke="#A855F7" stroke-width="1" opacity="0.55"/>
</svg>
